<mxfile host="Electron" modified="2023-09-26T18:28:11.170Z" agent="Mozilla/5.0 (Windows NT 10.0; Win64; x64) AppleWebKit/537.36 (KHTML, like Gecko) draw.io/21.8.2 Chrome/114.0.5735.289 Electron/25.8.1 Safari/537.36" etag="nZCuBd72ZD5R0HVzqUxw" version="21.8.2" type="device">
  <diagram name="PÃ¡gina-1" id="PXpGBADYKQF3ljElM_C4">
    <mxGraphModel dx="410" dy="719" grid="1" gridSize="10" guides="1" tooltips="1" connect="1" arrows="1" fold="1" page="1" pageScale="1" pageWidth="827" pageHeight="1169" math="0" shadow="0">
      <root>
        <mxCell id="0" />
        <mxCell id="1" parent="0" />
        <mxCell id="Oj2SfUWz-6ohQfN63JnP-12" value="" style="edgeStyle=orthogonalEdgeStyle;rounded=0;orthogonalLoop=1;jettySize=auto;html=1;" edge="1" parent="1" source="Oj2SfUWz-6ohQfN63JnP-1" target="Oj2SfUWz-6ohQfN63JnP-8">
          <mxGeometry relative="1" as="geometry" />
        </mxCell>
        <mxCell id="Oj2SfUWz-6ohQfN63JnP-1" value="INICIO&amp;nbsp;" style="ellipse;whiteSpace=wrap;html=1;fillColor=#0050ef;fontColor=#ffffff;strokeColor=#001DBC;" vertex="1" parent="1">
          <mxGeometry x="160" y="10" width="120" height="80" as="geometry" />
        </mxCell>
        <mxCell id="Oj2SfUWz-6ohQfN63JnP-2" value="FINAL" style="ellipse;whiteSpace=wrap;html=1;fillColor=#0050ef;fontColor=#ffffff;strokeColor=#001DBC;" vertex="1" parent="1">
          <mxGeometry x="180" y="650" width="120" height="80" as="geometry" />
        </mxCell>
        <mxCell id="Oj2SfUWz-6ohQfN63JnP-10" value="" style="edgeStyle=orthogonalEdgeStyle;rounded=0;orthogonalLoop=1;jettySize=auto;html=1;" edge="1" parent="1" source="Oj2SfUWz-6ohQfN63JnP-3" target="Oj2SfUWz-6ohQfN63JnP-4">
          <mxGeometry relative="1" as="geometry" />
        </mxCell>
        <mxCell id="Oj2SfUWz-6ohQfN63JnP-3" value="LEER EDAD" style="shape=parallelogram;perimeter=parallelogramPerimeter;whiteSpace=wrap;html=1;fixedSize=1;fillColor=#60a917;fontColor=#ffffff;strokeColor=#2D7600;" vertex="1" parent="1">
          <mxGeometry x="160" y="210" width="120" height="60" as="geometry" />
        </mxCell>
        <mxCell id="Oj2SfUWz-6ohQfN63JnP-24" style="edgeStyle=orthogonalEdgeStyle;rounded=0;orthogonalLoop=1;jettySize=auto;html=1;exitX=1;exitY=0.5;exitDx=0;exitDy=0;entryX=1;entryY=0.5;entryDx=0;entryDy=0;" edge="1" parent="1" source="Oj2SfUWz-6ohQfN63JnP-4" target="Oj2SfUWz-6ohQfN63JnP-22">
          <mxGeometry relative="1" as="geometry" />
        </mxCell>
        <mxCell id="Oj2SfUWz-6ohQfN63JnP-4" value="EDAD &amp;gt;= 18" style="rhombus;whiteSpace=wrap;html=1;fillColor=#e3c800;fontColor=#000000;strokeColor=#B09500;" vertex="1" parent="1">
          <mxGeometry x="155" y="310" width="130" height="120" as="geometry" />
        </mxCell>
        <mxCell id="Oj2SfUWz-6ohQfN63JnP-5" value="ESCRIBIR &quot;ERES MAYOR DE EDAD&amp;nbsp;" style="shape=parallelogram;perimeter=parallelogramPerimeter;whiteSpace=wrap;html=1;fixedSize=1;fillColor=#60a917;fontColor=#ffffff;strokeColor=#2D7600;" vertex="1" parent="1">
          <mxGeometry x="40" y="430" width="200" height="60" as="geometry" />
        </mxCell>
        <mxCell id="Oj2SfUWz-6ohQfN63JnP-11" value="" style="edgeStyle=orthogonalEdgeStyle;rounded=0;orthogonalLoop=1;jettySize=auto;html=1;" edge="1" parent="1" source="Oj2SfUWz-6ohQfN63JnP-8" target="Oj2SfUWz-6ohQfN63JnP-3">
          <mxGeometry relative="1" as="geometry" />
        </mxCell>
        <mxCell id="Oj2SfUWz-6ohQfN63JnP-8" value="ESCRIBIR EDAD" style="rounded=0;whiteSpace=wrap;html=1;fillColor=#1ba1e2;fontColor=#ffffff;strokeColor=#006EAF;" vertex="1" parent="1">
          <mxGeometry x="160" y="110" width="120" height="60" as="geometry" />
        </mxCell>
        <mxCell id="Oj2SfUWz-6ohQfN63JnP-15" value="SI" style="text;html=1;strokeColor=none;fillColor=none;align=center;verticalAlign=middle;whiteSpace=wrap;rounded=0;" vertex="1" parent="1">
          <mxGeometry x="115" y="340" width="50" height="20" as="geometry" />
        </mxCell>
        <mxCell id="Oj2SfUWz-6ohQfN63JnP-16" value="NO" style="text;html=1;strokeColor=none;fillColor=none;align=center;verticalAlign=middle;whiteSpace=wrap;rounded=0;" vertex="1" parent="1">
          <mxGeometry x="280" y="340" width="30" height="20" as="geometry" />
        </mxCell>
        <mxCell id="Oj2SfUWz-6ohQfN63JnP-20" style="edgeStyle=orthogonalEdgeStyle;rounded=0;orthogonalLoop=1;jettySize=auto;html=1;exitX=0;exitY=0.5;exitDx=0;exitDy=0;entryX=0.441;entryY=-0.005;entryDx=0;entryDy=0;entryPerimeter=0;" edge="1" parent="1" source="Oj2SfUWz-6ohQfN63JnP-4" target="Oj2SfUWz-6ohQfN63JnP-5">
          <mxGeometry relative="1" as="geometry" />
        </mxCell>
        <mxCell id="Oj2SfUWz-6ohQfN63JnP-25" style="edgeStyle=orthogonalEdgeStyle;rounded=0;orthogonalLoop=1;jettySize=auto;html=1;exitX=0.5;exitY=1;exitDx=0;exitDy=0;entryX=0.5;entryY=0;entryDx=0;entryDy=0;" edge="1" parent="1" source="Oj2SfUWz-6ohQfN63JnP-22" target="Oj2SfUWz-6ohQfN63JnP-2">
          <mxGeometry relative="1" as="geometry" />
        </mxCell>
        <mxCell id="Oj2SfUWz-6ohQfN63JnP-22" value="" style="ellipse;whiteSpace=wrap;html=1;aspect=fixed;fillColor=#e51400;fontColor=#ffffff;strokeColor=#B20000;" vertex="1" parent="1">
          <mxGeometry x="220" y="580" width="40" height="40" as="geometry" />
        </mxCell>
        <mxCell id="Oj2SfUWz-6ohQfN63JnP-23" style="edgeStyle=orthogonalEdgeStyle;rounded=0;orthogonalLoop=1;jettySize=auto;html=1;exitX=0.5;exitY=1;exitDx=0;exitDy=0;entryX=0.011;entryY=0.699;entryDx=0;entryDy=0;entryPerimeter=0;" edge="1" parent="1" source="Oj2SfUWz-6ohQfN63JnP-5" target="Oj2SfUWz-6ohQfN63JnP-22">
          <mxGeometry relative="1" as="geometry" />
        </mxCell>
      </root>
    </mxGraphModel>
  </diagram>
</mxfile>
